<svg xmlns="http://www.w3.org/2000/svg" viewBox="0 0 1200 750" role="img" aria-labelledby="title desc">
  <title id="title">MoodChanger for People concept</title>
  <desc id="desc">Wearable wellbeing signals forming a calm guidance interface.</desc>
  <defs>
    <linearGradient id="bg" x1="0" y1="0" x2="1" y2="1">
      <stop offset="0" stop-color="#18141C"/>
      <stop offset="0.55" stop-color="#16231E"/>
      <stop offset="1" stop-color="#020304"/>
    </linearGradient>
    <radialGradient id="glow" cx="56%" cy="42%" r="55%">
      <stop offset="0" stop-color="#CFFE25" stop-opacity="0.42"/>
      <stop offset="1" stop-color="#CFFE25" stop-opacity="0"/>
    </radialGradient>
  </defs>
  <rect width="1200" height="750" fill="url(#bg)"/>
  <rect width="1200" height="750" fill="url(#glow)"/>
  <g fill="none" stroke="#ffffff" stroke-opacity="0.08">
    <path d="M0 150h1200M0 300h1200M0 450h1200M0 600h1200"/>
    <path d="M150 0v750M300 0v750M450 0v750M600 0v750M750 0v750M900 0v750M1050 0v750"/>
  </g>
  <g transform="translate(240 132)"><circle cx="360" cy="242" r="184" fill="#0D0D10" stroke="#FFFFFF" stroke-opacity="0.1"/><path d="M270 270c34 58 146 58 180 0" fill="none" stroke="#CFFE25" stroke-width="14" stroke-linecap="round"/><circle cx="300" cy="204" r="16" fill="#D8F7D6"/><circle cx="420" cy="204" r="16" fill="#D8F7D6"/><path d="M146 248c-68 24-104 74-112 150M574 248c68 24 104 74 112 150" fill="none" stroke="#D8F7D6" stroke-opacity="0.45" stroke-width="12" stroke-linecap="round"/><g fill="none" stroke="#CFFE25" stroke-width="7" stroke-linecap="round"><path d="M44 430c72-48 122-48 194 0s122 48 194 0 122-48 194 0"/><path d="M96 488c56-34 96-34 152 0s96 34 152 0 96-34 152 0"/></g></g>
</svg>